HIERARCHY
ROOT Hips
{
  OFFSET -23.7486 99.2819 59.2069
  CHANNELS 6 Xposition Yposition Zposition Zrotation Xrotation Yrotation
  JOINT ToSpine
  {
    OFFSET -0.0105055 1.38907 -7.13956
    CHANNELS 3 Zrotation Xrotation Yrotation
    JOINT Spine
    {
      OFFSET 0.0105055 10 1
      CHANNELS 3 Zrotation Xrotation Yrotation
      JOINT Spine1
      {
        OFFSET 0 12 1.60637
        CHANNELS 3 Zrotation Xrotation Yrotation
        JOINT Neck
        {
          OFFSET 0 27 2.26658
          CHANNELS 3 Zrotation Xrotation Yrotation
          JOINT Head
          {
            OFFSET 0 9 2.12705
            CHANNELS 3 Zrotation Xrotation Yrotation
            End Site
            {
              OFFSET 0 11 2
            }
          }
        }
        JOINT LeftShoulder
        {
          OFFSET 8 19.6109 2.86452
          CHANNELS 3 Zrotation Xrotation Yrotation
          JOINT LeftArm
          {
            OFFSET 12 1 0.681055
            CHANNELS 3 Zrotation Xrotation Yrotation
            JOINT LeftForeArm
            {
              OFFSET 19 0 -1.52608
              CHANNELS 3 Zrotation Xrotation Yrotation
              JOINT LeftHand
              {
                OFFSET 23 0 0
                CHANNELS 3 Zrotation Xrotation Yrotation
                End Site
                {
                  OFFSET 10 0 0
                }
              }
            }
          }
        }
        JOINT RightShoulder
        {
          OFFSET -8 19.6109 2.86452
          CHANNELS 3 Zrotation Xrotation Yrotation
          JOINT RightArm
          {
            OFFSET -12 1 0.681055
            CHANNELS 3 Zrotation Xrotation Yrotation
            JOINT RightForeArm
            {
              OFFSET -19 0 -1.52608
              CHANNELS 3 Zrotation Xrotation Yrotation
              JOINT RightHand
              {
                OFFSET -23 0 0
                CHANNELS 3 Zrotation Xrotation Yrotation
                End Site
                {
                  OFFSET -10 0 0
                }
              }
            }
          }
        }
      }
    }
  }
  JOINT LeftUpLeg
  {
    OFFSET 9 -7.17245 0
    CHANNELS 3 Zrotation Xrotation Yrotation
    JOINT LeftLeg
    {
      OFFSET 0 -44.1113 0
      CHANNELS 3 Zrotation Xrotation Yrotation
      JOINT LeftFoot
      {
        OFFSET 0 -36.1829 0
        CHANNELS 3 Zrotation Xrotation Yrotation
        JOINT LeftToeBase
        {
          OFFSET 0 -4.84184 13
          CHANNELS 3 Zrotation Xrotation Yrotation
          End Site
          {
            OFFSET 0 1 6
          }
        }
      }
    }
  }
  JOINT RightUpLeg
  {
    OFFSET -9 -7.17245 0
    CHANNELS 3 Zrotation Xrotation Yrotation
    JOINT RightLeg
    {
      OFFSET 0 -44.0551 0
      CHANNELS 3 Zrotation Xrotation Yrotation
      JOINT RightFoot
      {
        OFFSET 0 -36.1469 0
        CHANNELS 3 Zrotation Xrotation Yrotation
        JOINT RightToeBase
        {
          OFFSET 0 -4.92256 13
          CHANNELS 3 Zrotation Xrotation Yrotation
          End Site
          {
            OFFSET 0 1 6
          }
        }
      }
    }
  }
}
MOTION
Frames:	14
Frame Time:	0.0333333
67.9729 98.3566 -39.0595 3.30953 3.27176 135.826 0 0 0 -2.91404 -0.417613 -0.713759 0.507232 7.5389 -1.17162 14.3622 10.8415 -1.34529 -5.2826 -1.38977 5.37606 -28.2658 3.91477 -7.85724 -46.0596 1.97529 -23.3505 -36.7037 -26.8992 -58.7469 -9.42868 -0.251724 3.05322 25.4086 6.18741 15.91 33.1505 5.40799 19.7027 28.2158 -24.9837 51.791 10.5394 -0.0621085 -0.681244 -5.29313 1.20727 4.58377 -1.4969 20.8253 -14.2484 8.47473 -18.9006 1.4112 -0.393717 9.82713 -0.720383 -1.65414 -18.1642 1.91331 -0.000975045 37.8173 -4.05148 -22.227 -7.13114 -1.42669 4.21497 -16.1 -6.34681 
70.7207 98.2235 -41.1854 4.27227 2.95929 137.764 0 0 0 -4.67095 1.2536 -1.41471 2.82138 6.48762 -2.31224 16.5063 10.4495 -2.11379 -6.04692 -1.55965 5.54531 -27.1623 3.93702 -8.28779 -46.5179 3.13232 -24.52 -37.9188 -28.1004 -58.8412 -9.22133 -0.28403 3.52357 26.0624 6.16092 15.4595 32.7296 5.3587 19.0943 31.6473 -26.4423 54.1525 8.88812 -0.057863 -0.740896 -3.25901 4.53072 6.03469 -1.63848 20.0069 -17.9209 9.92353 -19.1584 1.67424 -0.298209 7.61477 -0.62712 0.268628 -18.183 2.76957 -0.136915 26.9242 -2.24572 -21.2918 -2.83736 -0.518741 4.21477 -16.1358 -6.82481 
73.5496 97.6395 -43.5638 4.90496 3.09944 139.159 0 0 0 -6.36544 2.37442 -1.80165 4.42676 6.02964 -3.00438 18.2469 10.0039 -2.7915 -6.58232 -1.8936 5.57624 -26.5864 3.964 -8.5675 -46.6626 3.77804 -25.8528 -37.6634 -28.4825 -58.2906 -9.58475 -0.330184 3.92932 26.5799 6.16431 15.1843 32.6548 4.29215 18.357 31.0961 -25.4757 54.5058 8.24155 -0.0448778 -0.620492 -1.55851 7.89564 7.94766 -2.32251 19.9619 -21.7799 11.1447 -21.1189 2.07233 -0.373802 5.95958 0.0180381 1.60723 -17.3568 2.04807 -0.294359 15.7596 0.34329 -23.5593 0.364578 0.0823194 4.56295 -17.8245 -7.11881 
76.3249 96.8974 -46.3452 4.77001 3.38719 140.196 0 0 0 -7.80111 2.27892 -2.17705 5.39881 6.08097 -3.48654 18.9043 10.1282 -3.16152 -6.64701 -2.51359 5.46216 -26.8427 4.0036 -8.59756 -46.6721 3.90165 -26.8373 -36.713 -28.2253 -57.6173 -10.0087 -0.344746 3.93743 26.3022 6.02759 14.9261 33.1609 3.62697 17.9564 30.8132 -25.1477 54.5304 7.89558 -0.0643346 -0.939834 -0.882668 11.2883 9.25867 -2.74206 19.3664 -24.6741 11.4381 -24.4338 2.49041 -0.189095 9.02951 -1.25571 2.01564 -17.8358 0.206792 0.752315 8.45072 0.32893 -22.3346 1.5555 0.302619 4.64314 -18.2498 -7.36089 
79.0436 95.892 -49.2839 4.88847 3.55557 140.574 0 0 0 -8.20405 2.20881 -2.4422 5.68579 6.13126 -3.70414 19.3173 10.341 -3.37107 -6.80572 -2.94695 5.45585 -26.9866 4.0177 -8.58884 -46.8149 3.94847 -27.3912 -36.7534 -28.2564 -57.6292 -9.47404 -0.301413 3.63451 26.3597 6.00313 14.8219 33.1274 3.64727 17.837 32.7308 -25.8484 55.85 7.89098 -0.0958185 -1.44155 -0.385133 15.2311 10.4231 -3.15629 17.8854 -26.479 11.8269 -26.458 2.78398 -0.19288 9.8585 -1.34425 3.14027 -19.1718 -0.075019 1.78047 5.91525 -3.34325 -18.322 0.879839 0.14666 4.67242 -18.5113 -7.98587 
81.8637 94.7755 -52.2482 5.261 3.51013 140.441 0 0 0 -8.50022 2.19504 -2.45422 6.45461 6.21449 -3.88339 19.018 10.2413 -3.14473 -6.84257 -2.86106 5.56308 -27.1109 4.03425 -8.59483 -47.0029 3.85794 -27.6153 -37.0476 -28.3317 -57.8426 -9.2725 -0.305529 3.76247 26.5912 6.06245 14.8755 32.5916 3.55836 17.7785 33.9812 -26.202 56.7724 4.40753 -0.0447343 -0.75684 0.313751 19.1425 11.6646 -3.59858 16.6852 -27.7781 11.8779 -28.4146 3.01987 -0.375386 9.83161 -0.761866 5.10242 -19.916 0.970063 1.988 5.7288 -6.51627 -16.3276 -0.405536 -0.0599678 4.63273 -18.3644 -8.19467 
84.3931 94.1933 -55.3421 5.31758 2.96219 141.162 0 0 0 -7.80533 1.34567 -2.97402 6.70841 7.06253 -4.58986 18.3551 9.77403 -2.76871 -6.63554 -2.41902 5.59171 -27.0114 4.03433 -8.63022 -47.3814 3.7451 -27.4801 -36.7245 -28.0701 -57.7591 -9.47944 -0.314225 3.80231 26.5857 5.97091 14.6038 32.4875 3.55071 18.0198 34.3236 -26.4868 56.8466 5.03684 -0.0159543 -0.271491 0.658001 22.4338 11.78 -3.45908 14.325 -28.2442 12.5072 -27.1624 3.0219 -0.294208 6.10131 -0.456994 6.04121 -20.5309 1.2074 2.56685 7.73178 -6.30576 -16.2838 0.85373 0.123908 4.38582 -17.0475 -7.59662 
86.7494 94.3263 -58.4129 5.39703 1.98882 142.429 0 0 0 -6.27809 -0.0338098 -3.72194 6.57899 8.4901 -5.44503 17.6922 8.97586 -2.49838 -6.1225 -1.84105 5.41082 -27.0144 4.04317 -8.65503 -47.5537 3.46258 -27.3833 -37.9001 -28.6869 -58.3414 -10.2771 -0.419875 4.61754 26.7408 5.86431 14.2073 32.842 3.15426 17.9831 33.1399 -25.4097 56.6863 9.15259 -0.0435407 -0.561626 1.14504 24.8153 10.8333 -2.22989 11.7408 -27.7558 8.38195 -24.8775 1.86807 0.703247 3.41579 -3.59432 6.82489 -21.9112 1.47195 2.80621 11.6287 -4.51049 -17.4787 5.58376 0.865712 4.36638 -16.9961 -7.93323 
89.3914 94.6172 -61.5718 5.46192 1.5704 143.521 0 0 0 -5.63192 -0.844191 -4.14499 7.02427 9.21365 -6.0136 16.4267 8.28597 -2.16065 -5.3947 -1.29728 5.04597 -27.6543 4.00723 -8.32906 -47.442 3.85199 -27.319 -37.8984 -28.9134 -58.1555 -10.2878 -0.43725 4.82458 26.5404 5.77155 14.03 33.5599 2.79556 17.334 32.9146 -24.9352 56.9231 8.62577 -0.0463176 -0.611356 1.45784 25.4844 9.65245 -0.793814 13.1297 -25.9833 6.08757 -19.9428 1.00066 1.87849 -5.03583 -8.07004 7.31947 -23.2615 0.184991 2.3653 17.3459 -2.12042 -18.5621 8.81853 1.44132 4.22705 -16.4184 -8.60273 
92.0374 94.8791 -64.9859 4.98355 1.62844 143.796 0 0 0 -4.86673 -1.73768 -3.97417 6.41738 9.4333 -5.7131 14.9731 8.22089 -2.08446 -4.8385 -1.44826 4.44793 -28.1364 4.04129 -8.26439 -47.6356 4.66153 -27.1174 -36.1631 -28.3854 -56.9588 -9.98503 -0.40863 4.66943 25.8224 5.59757 13.8742 34.8417 2.02527 16.2839 30.4711 -23.6764 55.6858 9.79426 -0.0400112 -0.480386 1.10236 23.3162 8.04968 0.186157 20.2071 -23.6706 5.90772 -12.7067 0.692456 2.25051 -18.3941 -11.7807 6.78294 -24.0524 -3.66387 1.04924 24.0622 1.73995 -18.916 7.00535 1.16601 3.56834 -13.0057 -7.36372 
94.66 95.3067 -68.3705 4.52384 2.00269 143.185 0 0 0 -3.55282 -1.79031 -3.27795 4.66901 8.59272 -4.69864 13.6083 8.88781 -2.14141 -4.47265 -1.73228 3.87124 -28.3907 4.12656 -8.42637 -47.8705 4.7717 -26.1722 -35.8421 -27.8303 -57.1251 -9.47664 -0.380846 4.54285 25.2456 5.49218 13.848 35.6518 2.5648 15.314 31.0036 -24.1855 55.716 9.6609 -0.00360308 -0.211467 1.34538 18.896 7.31439 0.0962823 31.7589 -23.8182 3.51425 -6.5571 0.186079 2.36478 -17.201 -13.7609 6.22305 -23.4487 -5.3911 -0.0749691 29.2917 3.84741 -18.5192 2.0582 0.339672 3.03254 -10.6072 -6.45314 
97.1316 95.8545 -71.3777 4.52823 2.25232 142.893 0 0 0 -1.48595 -0.62107 -2.40647 2.49419 6.72487 -3.45829 12.1032 9.51553 -2.33845 -3.79729 -1.60337 3.03133 -28.4429 4.20279 -8.62738 -47.801 5.52441 -25.8128 -35.7601 -27.9028 -56.9836 -9.03142 -0.353754 4.45807 24.5615 5.08291 12.902 36.3765 2.55802 15.0686 29.5692 -22.6661 55.8153 11.0924 -0.432546 -3.75944 2.98447 12.6846 7.83744 -0.183755 44.2185 -26.7888 2.24586 2.07662 -0.014328 1.57216 -7.02582 -5.19921 5.82159 -21.3306 -6.13588 -0.0102317 31.5429 4.32209 -18.0503 -2.03397 -0.327013 2.97772 -10.3303 -6.43168 
99.3143 96.4455 -73.9508 4.92129 2.30921 143.334 0 0 0 -0.0191815 -0.262457 -2.20768 1.50867 6.87622 -3.05983 10.9235 10.1473 -2.15085 -3.29569 -2.17532 2.70594 -28.5468 4.20982 -8.61296 -47.1961 5.52379 -26.2013 -36.25 -28.4971 -56.9478 -9.56065 -0.377624 4.51901 24.7053 5.24456 13.3302 35.7241 1.22966 15.3575 25.4408 -19.2552 55.269 11.7821 -0.822178 -8.31786 4.94496 5.84374 7.47656 0.23661 54.9663 -25.6748 0.151215 3.71425 -0.0639542 -0.153982 -0.599122 0.503444 5.84675 -18.4467 -7.19553 -1.03354e-005 31.5351 4.62596 -16.871 -4.89658 -0.717966 2.79397 -9.54836 -5.96394 
101.357 96.9839 -76.3489 5.36924 2.42352 143.981 0 0 0 1.05341 -0.373657 -2.37461 0.717105 8.01858 -2.94163 11.2994 10.911 -2.11793 -3.915 -2.73277 3.06934 -28.1962 4.05473 -8.28321 -47.007 4.94579 -26.1864 -36.1413 -27.9359 -57.3206 -8.63347 -0.242162 3.30611 25.809 5.90002 14.809 34.1369 2.19313 15.6142 28.7833 -21.7889 55.9549 8.57231 -0.386666 -4.79007 6.02915 -0.457454 6.50653 0.0443487 62.4235 -19.5875 2.15418 -3.95133 0.132226 0.328337 1.03121 -1.59463 6.17792 -15.3095 -7.66919 -0.023182 30.6862 4.49081 -16.4459 -6.82445 -0.991275 2.85139 -9.73592 -6.33783 
